<svg xmlns="http://www.w3.org/2000/svg" width="25" height="25" id="export"><g fill="#fff" transform="translate(4.499 -1031.861)"><circle cx="37.045" cy="28.409" r="12.5" fill="#50b748" fill-rule="evenodd" transform="translate(-29.044 1015.952)"></circle><path style="line-height:normal;text-indent:0;text-align:start;text-decoration-line:none;text-decoration-style:solid;text-decoration-color:#000;text-transform:none;block-progression:tb;isolation:auto;mix-blend-mode:normal" fill="#10a711" d="M12.982 24.977a12.5 12.5 0 0 0 .766-.04 12.5 12.5 0 0 0 1.234-.187 12.5 12.5 0 0 0 1.211-.309 12.5 12.5 0 0 0 1.174-.427 12.5 12.5 0 0 0 1.125-.543 12.5 12.5 0 0 0 1.067-.655 12.5 12.5 0 0 0 .994-.755 12.5 12.5 0 0 0 .914-.852 12.5 12.5 0 0 0 .824-.94 12.5 12.5 0 0 0 .727-1.015 12.5 12.5 0 0 0 .623-1.084 12.5 12.5 0 0 0 .474-1.06l-7.111-7.112-2.994-2.99-7.006-.01v12l5.978 5.979z" color="#000" font-family="sans-serif" font-weight="400" transform="translate(-4.499 1031.861)"></path><path style="line-height:normal;text-indent:0;text-align:start;text-decoration-line:none;text-decoration-style:solid;text-decoration-color:#000;text-transform:none;block-progression:tb;isolation:auto;mix-blend-mode:normal" d="M1.021 2v11.998h10v-4h1V12l.801-.6 2.533-1.898-3.334-2.508v2.004h-1v-4l.002-.002-.002-.002-2.994-2.99V2zm1 1h5.006l-.004 2.994h2.998v3.004h-4v1h4v3h-8zm6.004.416 1.582 1.578H8.023z" color="#000" font-family="sans-serif" font-weight="400" overflow="visible" transform="translate(1.483 1036.861)"></path></g></svg>